<svg
   version="1.1"
   id="svg2"
   width="665.20001"
   height="226.77333"
   viewBox="0 0 665.20001 226.77333"
   sodipodi:docname="misfire 1.eps"
   xmlns:inkscape="http://www.inkscape.org/namespaces/inkscape"
   xmlns:sodipodi="http://sodipodi.sourceforge.net/DTD/sodipodi-0.dtd"
   xmlns="http://www.w3.org/2000/svg"
   xmlns:svg="http://www.w3.org/2000/svg">
  <defs
     id="defs6" />
  <sodipodi:namedview
     id="namedview4"
     pagecolor="#ffffff"
     bordercolor="#000000"
     borderopacity="0.25"
     inkscape:showpageshadow="2"
     inkscape:pageopacity="0.0"
     inkscape:pagecheckerboard="0"
     inkscape:deskcolor="#d1d1d1" />
  <g
     id="g8"
     inkscape:groupmode="layer"
     inkscape:label="ink_ext_XXXXXX"
     transform="matrix(1.3333333,0,0,-1.3333333,0,226.77333)">
    <g
       id="g10"
       transform="scale(0.1)">
      <path
         d="m 1221.17,1201.58 c -0.38,-0.46 -0.76,-0.99 -1.14,-1.53 -24.74,-35.29 -107.62,16.62 -112.25,19.59 -0.15,0.08 -0.22,0.16 -0.22,0.16 l -41.82,35.22 h -0.08 c 0,0 0,0 0,0.14 -42.72,46.05 -89.398,136 12.3,261.39 0,0 28.53,-16.39 24.21,-40.1 0,0 127.12,141.25 61.4,224.34 0,0 98.2,-16.16 98.2,-178.14 0,-30.34 -3.49,-65.86 -11.69,-107.33 0,0 34.54,10.06 34.54,34.61 0,0 40.37,-115.49 -63.45,-248.35"
         style="fill:#231f20;fill-opacity:1;fill-rule:nonzero;stroke:none"
         id="path12" />
      <path
         d="m 2402.2,365.871 -43.06,-56.211 h 66.26 z m 301.66,13.949 c -3.41,4.168 -7.82,6.09 -13.89,6.09 H 2572.9 l -8.06,-46.351 h 113.33 c 6.73,0 12.8,2.421 18.62,7.351 5.91,5.012 9.32,10.77 10.56,17.621 1.08,6.18 0,11.02 -3.49,15.289 z m 11.06,-87.691 c -3.41,4.09 -7.82,6.09 -13.97,6.09 h -143.43 l -8.06,-46.348 h 139.6 c 6.9,0 12.97,2.43 18.87,7.348 5.91,5.011 9.32,10.781 10.48,17.543 1.08,6.258 0,11.109 -3.49,15.367 z m 427.37,65.723 c -1.41,5.597 -3.82,10.437 -7.32,14.617 -3.49,4.25 -7.64,7.429 -12.8,9.851 -5.15,2.418 -10.81,3.59 -17.38,3.59 h -68.76 c -6.65,0 -13.3,-1.34 -19.62,-3.84 -6.57,-2.59 -12.64,-6.261 -18.04,-10.941 -5.49,-4.59 -10.07,-10.02 -13.72,-16.117 -3.58,-5.934 -5.99,-12.364 -7.24,-19.121 l -6.56,-37.832 c -1.17,-6.598 -1.09,-12.528 0.33,-18.289 1.41,-5.598 3.82,-10.36 7.23,-14.532 3.49,-4.179 7.65,-7.347 12.89,-9.777 5.07,-2.422 10.97,-3.59 17.46,-3.59 h 68.76 c 6.65,0 13.22,1.258 19.54,3.758 6.57,2.672 12.56,6.351 18.04,10.941 5.41,4.59 10.06,10.02 13.8,16.121 3.58,6.008 6.07,12.438 7.16,19.039 l 6.65,37.829 c 1.16,6.519 1,12.703 -0.42,18.293 z m 0,0 c -1.41,5.597 -3.82,10.437 -7.32,14.617 -3.49,4.25 -7.64,7.429 -12.8,9.851 -5.15,2.418 -10.81,3.59 -17.38,3.59 h -68.76 c -6.65,0 -13.3,-1.34 -19.62,-3.84 -6.57,-2.59 -12.64,-6.261 -18.04,-10.941 -5.49,-4.59 -10.07,-10.02 -13.72,-16.117 -3.58,-5.934 -5.99,-12.364 -7.24,-19.121 l -6.56,-37.832 c -1.17,-6.598 -1.09,-12.528 0.33,-18.289 1.41,-5.598 3.82,-10.36 7.23,-14.532 3.49,-4.179 7.65,-7.347 12.89,-9.777 5.07,-2.422 10.97,-3.59 17.46,-3.59 h 68.76 c 6.65,0 13.22,1.258 19.54,3.758 6.57,2.672 12.56,6.351 18.04,10.941 5.41,4.59 10.06,10.02 13.8,16.121 3.58,6.008 6.07,12.438 7.16,19.039 l 6.65,37.829 c 1.16,6.519 1,12.703 -0.42,18.293 z m -427.37,-65.723 c -3.41,4.09 -7.82,6.09 -13.97,6.09 h -143.43 l -8.06,-46.348 h 139.6 c 6.9,0 12.97,2.43 18.87,7.348 5.91,5.011 9.32,10.781 10.48,17.543 1.08,6.258 0,11.109 -3.49,15.367 z m -11.06,87.691 c -3.41,4.168 -7.82,6.09 -13.89,6.09 H 2572.9 l -8.06,-46.351 h 113.33 c 6.73,0 12.8,2.421 18.62,7.351 5.91,5.012 9.32,10.77 10.56,17.621 1.08,6.18 0,11.02 -3.49,15.289 z M 2402.2,365.871 2359.14,309.66 h 66.26 z m 0,0 -43.06,-56.211 h 66.26 z m 301.66,13.949 c -3.41,4.168 -7.82,6.09 -13.89,6.09 H 2572.9 l -8.06,-46.351 h 113.33 c 6.73,0 12.8,2.421 18.62,7.351 5.91,5.012 9.32,10.77 10.56,17.621 1.08,6.18 0,11.02 -3.49,15.289 z m 11.06,-87.691 c -3.41,4.09 -7.82,6.09 -13.97,6.09 h -143.43 l -8.06,-46.348 h 139.6 c 6.9,0 12.97,2.43 18.87,7.348 5.91,5.011 9.32,10.781 10.48,17.543 1.08,6.258 0,11.109 -3.49,15.367 z m 427.37,65.723 c -1.41,5.597 -3.82,10.437 -7.32,14.617 -3.49,4.25 -7.64,7.429 -12.8,9.851 -5.15,2.418 -10.81,3.59 -17.38,3.59 h -68.76 c -6.65,0 -13.3,-1.34 -19.62,-3.84 -6.57,-2.59 -12.64,-6.261 -18.04,-10.941 -5.49,-4.59 -10.07,-10.02 -13.72,-16.117 -3.58,-5.934 -5.99,-12.364 -7.24,-19.121 l -6.56,-37.832 c -1.17,-6.598 -1.09,-12.528 0.33,-18.289 1.41,-5.598 3.82,-10.36 7.23,-14.532 3.49,-4.179 7.65,-7.347 12.89,-9.777 5.07,-2.422 10.97,-3.59 17.46,-3.59 h 68.76 c 6.65,0 13.22,1.258 19.54,3.758 6.57,2.672 12.56,6.351 18.04,10.941 5.41,4.59 10.06,10.02 13.8,16.121 3.58,6.008 6.07,12.438 7.16,19.039 l 6.65,37.829 c 1.16,6.519 1,12.703 -0.42,18.293 z m 0,0 c -1.41,5.597 -3.82,10.437 -7.32,14.617 -3.49,4.25 -7.64,7.429 -12.8,9.851 -5.15,2.418 -10.81,3.59 -17.38,3.59 h -68.76 c -6.65,0 -13.3,-1.34 -19.62,-3.84 -6.57,-2.59 -12.64,-6.261 -18.04,-10.941 -5.49,-4.59 -10.07,-10.02 -13.72,-16.117 -3.58,-5.934 -5.99,-12.364 -7.24,-19.121 l -6.56,-37.832 c -1.17,-6.598 -1.09,-12.528 0.33,-18.289 1.41,-5.598 3.82,-10.36 7.23,-14.532 3.49,-4.179 7.65,-7.347 12.89,-9.777 5.07,-2.422 10.97,-3.59 17.46,-3.59 h 68.76 c 6.65,0 13.22,1.258 19.54,3.758 6.57,2.672 12.56,6.351 18.04,10.941 5.41,4.59 10.06,10.02 13.8,16.121 3.58,6.008 6.07,12.438 7.16,19.039 l 6.65,37.829 c 1.16,6.519 1,12.703 -0.42,18.293 z m -427.37,-65.723 c -3.41,4.09 -7.82,6.09 -13.97,6.09 h -143.43 l -8.06,-46.348 h 139.6 c 6.9,0 12.97,2.43 18.87,7.348 5.91,5.011 9.32,10.781 10.48,17.543 1.08,6.258 0,11.109 -3.49,15.367 z m -11.06,87.691 c -3.41,4.168 -7.82,6.09 -13.89,6.09 H 2572.9 l -8.06,-46.351 h 113.33 c 6.73,0 12.8,2.421 18.62,7.351 5.91,5.012 9.32,10.77 10.56,17.621 1.08,6.18 0,11.02 -3.49,15.289 z M 2402.2,365.871 2359.14,309.66 h 66.26 z m 0,0 -43.06,-56.211 h 66.26 z m 301.66,13.949 c -3.41,4.168 -7.82,6.09 -13.89,6.09 H 2572.9 l -8.06,-46.351 h 113.33 c 6.73,0 12.8,2.421 18.62,7.351 5.91,5.012 9.32,10.77 10.56,17.621 1.08,6.18 0,11.02 -3.49,15.289 z m 11.06,-87.691 c -3.41,4.09 -7.82,6.09 -13.97,6.09 h -143.43 l -8.06,-46.348 h 139.6 c 6.9,0 12.97,2.43 18.87,7.348 5.91,5.011 9.32,10.781 10.48,17.543 1.08,6.258 0,11.109 -3.49,15.367 z m 427.37,65.723 c -1.41,5.597 -3.82,10.437 -7.32,14.617 -3.49,4.25 -7.64,7.429 -12.8,9.851 -5.15,2.418 -10.81,3.59 -17.38,3.59 h -68.76 c -6.65,0 -13.3,-1.34 -19.62,-3.84 -6.57,-2.59 -12.64,-6.261 -18.04,-10.941 -5.49,-4.59 -10.07,-10.02 -13.72,-16.117 -3.58,-5.934 -5.99,-12.364 -7.24,-19.121 l -6.56,-37.832 c -1.17,-6.598 -1.09,-12.528 0.33,-18.289 1.41,-5.598 3.82,-10.36 7.23,-14.532 3.49,-4.179 7.65,-7.347 12.89,-9.777 5.07,-2.422 10.97,-3.59 17.46,-3.59 h 68.76 c 6.65,0 13.22,1.258 19.54,3.758 6.57,2.672 12.56,6.351 18.04,10.941 5.41,4.59 10.06,10.02 13.8,16.121 3.58,6.008 6.07,12.438 7.16,19.039 l 6.65,37.829 c 1.16,6.519 1,12.703 -0.42,18.293 z m 768.44,19.207 c -4.99,6.011 -11.3,8.851 -20.04,8.851 h -134.28 l -11.39,-65.051 h 130.54 c 9.31,0 17.71,3.332 25.78,10.102 8.06,6.848 12.8,14.777 14.47,24.301 1.57,8.769 -0.09,15.699 -5.08,21.797 z m 233.31,2.761 c -3.41,4.168 -7.81,6.09 -13.88,6.09 h -117.07 l -8.07,-46.351 h 113.33 c 6.73,0 12.8,2.421 18.63,7.351 5.9,5.012 9.31,10.77 10.55,17.621 1.09,6.18 0,11.02 -3.49,15.289 z m 11.06,-87.691 c -3.41,4.09 -7.82,6.09 -13.97,6.09 h -143.42 l -8.15,-46.348 h 139.68 c 6.82,0 12.97,2.43 18.88,7.348 5.82,5.011 9.31,10.781 10.47,17.543 1.08,6.258 0,11.109 -3.49,15.367 z m 0,0 c -3.41,4.09 -7.82,6.09 -13.97,6.09 h -143.42 l -8.15,-46.348 h 139.68 c 6.82,0 12.97,2.43 18.88,7.348 5.82,5.011 9.31,10.781 10.47,17.543 1.08,6.258 0,11.109 -3.49,15.367 z m -11.06,87.691 c -3.41,4.168 -7.81,6.09 -13.88,6.09 h -117.07 l -8.07,-46.351 h 113.33 c 6.73,0 12.8,2.421 18.63,7.351 5.9,5.012 9.31,10.77 10.55,17.621 1.09,6.18 0,11.02 -3.49,15.289 z m -233.31,-2.761 c -4.99,6.011 -11.3,8.851 -20.04,8.851 h -134.28 l -11.39,-65.051 h 130.54 c 9.31,0 17.71,3.332 25.78,10.102 8.06,6.848 12.8,14.777 14.47,24.301 1.57,8.769 -0.09,15.699 -5.08,21.797 z m -768.44,-19.207 c -1.41,5.597 -3.82,10.437 -7.32,14.617 -3.49,4.25 -7.64,7.429 -12.8,9.851 -5.15,2.418 -10.81,3.59 -17.38,3.59 h -68.76 c -6.65,0 -13.3,-1.34 -19.62,-3.84 -6.57,-2.59 -12.64,-6.261 -18.04,-10.941 -5.49,-4.59 -10.07,-10.02 -13.72,-16.117 -3.58,-5.934 -5.99,-12.364 -7.24,-19.121 l -6.56,-37.832 c -1.17,-6.598 -1.09,-12.528 0.33,-18.289 1.41,-5.598 3.82,-10.36 7.23,-14.532 3.49,-4.179 7.65,-7.347 12.89,-9.777 5.07,-2.422 10.97,-3.59 17.46,-3.59 h 68.76 c 6.65,0 13.22,1.258 19.54,3.758 6.57,2.672 12.56,6.351 18.04,10.941 5.41,4.59 10.06,10.02 13.8,16.121 3.58,6.008 6.07,12.438 7.16,19.039 l 6.65,37.829 c 1.16,6.519 1,12.703 -0.42,18.293 z m -427.37,-65.723 c -3.41,4.09 -7.82,6.09 -13.97,6.09 h -143.43 l -8.06,-46.348 h 139.6 c 6.9,0 12.97,2.43 18.87,7.348 5.91,5.011 9.32,10.781 10.48,17.543 1.08,6.258 0,11.109 -3.49,15.367 z m -11.06,87.691 c -3.41,4.168 -7.82,6.09 -13.89,6.09 H 2572.9 l -8.06,-46.351 h 113.33 c 6.73,0 12.8,2.421 18.62,7.351 5.91,5.012 9.32,10.77 10.56,17.621 1.08,6.18 0,11.02 -3.49,15.289 z M 2402.2,365.871 2359.14,309.66 h 66.26 z m -43.06,-56.211 h 66.26 l -23.2,56.211 z m 337.65,37.25 c 5.91,5.012 9.32,10.77 10.56,17.621 1.08,6.18 0,11.02 -3.49,15.289 -3.41,4.168 -7.82,6.09 -13.89,6.09 H 2572.9 l -8.06,-46.351 h 113.33 c 6.73,0 12.8,2.421 18.62,7.351 z m 4.16,-48.691 h -143.43 l -8.06,-46.348 h 139.6 c 6.9,0 12.97,2.43 18.87,7.348 5.91,5.011 9.32,10.781 10.48,17.543 1.08,6.258 0,11.109 -3.49,15.367 -3.41,4.09 -7.82,6.09 -13.97,6.09 z m 434.02,74.25 c -3.49,4.25 -7.64,7.429 -12.8,9.851 -5.15,2.418 -10.81,3.59 -17.38,3.59 h -68.76 c -6.65,0 -13.3,-1.34 -19.62,-3.84 -6.57,-2.59 -12.64,-6.261 -18.04,-10.941 -5.49,-4.59 -10.07,-10.02 -13.72,-16.117 -3.58,-5.934 -5.99,-12.364 -7.24,-19.121 l -6.56,-37.832 c -1.17,-6.598 -1.09,-12.528 0.33,-18.289 1.41,-5.598 3.82,-10.36 7.23,-14.532 3.49,-4.179 7.65,-7.347 12.89,-9.777 5.07,-2.422 10.97,-3.59 17.46,-3.59 h 68.76 c 6.65,0 13.22,1.258 19.54,3.758 6.57,2.672 12.56,6.351 18.04,10.941 5.41,4.59 10.06,10.02 13.8,16.121 3.58,6.008 6.07,12.438 7.16,19.039 l 6.65,37.829 c 1.16,6.519 1,12.703 -0.42,18.293 -1.41,5.597 -3.82,10.437 -7.32,14.617 z m 755.72,13.441 h -134.28 l -11.39,-65.051 h 130.54 c 9.31,0 17.71,3.332 25.78,10.102 8.06,6.848 12.8,14.777 14.47,24.301 1.57,8.769 -0.09,15.699 -5.08,21.797 -4.99,6.011 -11.3,8.851 -20.04,8.851 z m 246.29,-39 c 5.9,5.012 9.31,10.77 10.55,17.621 1.09,6.18 0,11.02 -3.49,15.289 -3.41,4.168 -7.81,6.09 -13.88,6.09 h -117.07 l -8.07,-46.351 h 113.33 c 6.73,0 12.8,2.421 18.63,7.351 z m 4.15,-48.691 h -143.42 l -8.15,-46.348 h 139.68 c 6.82,0 12.97,2.43 18.88,7.348 5.82,5.011 9.31,10.781 10.47,17.543 1.08,6.258 0,11.109 -3.49,15.367 -3.41,4.09 -7.82,6.09 -13.97,6.09 z m 750.81,936.011 h -588.59 l -14.3,-140.64 h 588.59 l -15.3,-145.645 h -481.33 c -12.14,0 -23.95,2.758 -35.17,8.184 -11.31,5.516 -20.45,13.113 -27.61,23.133 -7.15,9.855 -12.14,21.048 -14.88,33.328 l -14.3,81 -15.3,-145.645 -14.3,-140.632 h 588.59 l -14.38,-145.735 h -734.6 l 15.38,145.735 14.3,140.632 15.3,145.645 14.3,140.64 -10.22,52.36 c -4.08,23.97 1.66,45.43 17.37,64.64 15.64,19.2 35.67,28.72 60.29,28.72 h 681.46 z M 4719,360.859 c -1.5,-8.687 -4.57,-16.961 -9.23,-24.55 -4.32,-7.188 -9.64,-13.528 -15.8,-18.957 4.08,-5.512 7.07,-11.782 8.9,-18.793 2.08,-8.02 2.33,-16.539 0.75,-25.469 -1.5,-8.61 -4.66,-16.871 -9.23,-24.469 -4.57,-7.601 -10.23,-14.199 -16.88,-19.801 -6.65,-5.679 -14.13,-10.179 -22.12,-13.359 -8.14,-3.34 -16.79,-5.012 -25.52,-5.012 H 4511.3 c -8.98,0 -17.21,1.762 -24.61,5.262 -7.4,3.43 -13.72,8.269 -18.79,14.367 -5.07,6.184 -8.73,13.363 -10.73,21.383 -2.08,8.008 -2.24,16.527 -0.75,25.379 0.92,5.019 5.32,8.691 10.4,8.691 h 20.12 c 3.16,0 6.07,-1.34 8.06,-3.761 2,-2.418 2.91,-5.59 2.33,-8.68 -1.08,-6.18 0,-11.031 3.49,-15.199 3.41,-4.102 7.82,-6.02 14.05,-6.02 h 118.57 c 6.74,0 12.89,2.43 18.71,7.348 5.99,5.011 9.4,10.781 10.64,17.543 1.08,6.179 -0.08,11.019 -3.49,15.117 -3.41,4.09 -7.9,6.012 -14.05,6.012 h -97.86 c -3.08,0 -6.07,1.418 -8.07,3.839 -1.99,2.34 -2.83,5.508 -2.24,8.598 l 3.49,20.211 c 0.91,5.102 5.32,8.77 10.39,8.77 h 97.78 c 6.74,0 12.89,2.421 18.79,7.429 5.91,5.012 9.4,10.864 10.65,17.793 1.08,6.18 -0.09,11.02 -3.58,15.199 -3.41,4.18 -7.9,6.18 -13.97,6.18 h -118.57 c -6.73,0 -12.88,-2.422 -18.79,-7.43 -5.9,-5.101 -9.31,-10.859 -10.56,-17.621 -0.91,-5.097 -5.23,-8.769 -10.39,-8.769 h -20.12 c -3.08,0 -6.07,1.332 -8.07,3.762 -1.99,2.418 -2.82,5.589 -2.32,8.679 1.58,8.688 4.65,16.957 9.31,24.547 4.49,7.442 10.14,14.121 16.79,19.801 6.66,5.68 14.14,10.191 22.12,13.441 8.23,3.258 16.88,4.93 25.61,4.93 h 118.57 c 8.98,0 17.21,-1.75 24.61,-5.18 7.4,-3.511 13.8,-8.351 18.87,-14.531 4.99,-6.18 8.57,-13.277 10.65,-21.289 1.99,-7.941 2.24,-16.539 0.66,-25.391 z m -264.57,-59.05 -0.67,-3.75 c -0.08,-0.34 -0.16,-0.668 -0.25,-1.09 l -13.47,-77.75 c -0.83,-5.008 -5.23,-8.77 -10.39,-8.77 h -20.04 c -3.16,0 -6.07,1.422 -8.15,3.762 -1.99,2.418 -2.82,5.59 -2.24,8.687 l 0.08,0.832 c -4.24,-2.421 -8.56,-4.589 -13.05,-6.351 -11.48,-4.59 -23.45,-6.93 -35.5,-6.93 h -68.69 c -12.38,0 -23.77,2.422 -34,7.102 -10.31,4.84 -18.96,11.527 -25.86,19.961 -6.9,8.347 -11.81,18.207 -14.63,29.226 -2.83,10.942 -3.16,22.711 -1,34.992 l 20.54,116.75 c 0.83,5.09 5.23,8.77 10.39,8.77 h 20.2 c 3.16,0 6.07,-1.34 8.07,-3.762 2,-2.418 2.83,-5.59 2.33,-8.679 l -20.54,-116.75 c -1.08,-6.598 -1,-12.528 0.42,-18.289 1.41,-5.598 3.82,-10.36 7.23,-14.532 3.49,-4.179 7.65,-7.347 12.89,-9.777 5.07,-2.422 10.97,-3.59 17.37,-3.59 h 68.85 c 6.65,0 13.22,1.258 19.54,3.758 6.57,2.672 12.56,6.351 18.04,10.941 5.41,4.59 10.06,10.02 13.8,16.121 3.5,5.848 5.82,12.11 7.07,18.539 l 20.62,119.168 c 0.83,5.102 5.24,8.774 10.4,8.774 h 20.12 c 3.07,0 6.07,-1.344 8.06,-3.762 2,-2.422 2.83,-5.512 2.33,-8.601 L 4454.43,302.148 Z M 4199.5,273.09 c -1.5,-8.61 -4.65,-16.871 -9.23,-24.469 -4.57,-7.601 -10.31,-14.281 -16.96,-19.883 -13.72,-11.687 -29.68,-17.867 -47.31,-18.289 h -172.78 c -3.08,0 -6.07,1.422 -8.06,3.84 -2,2.34 -2.83,5.512 -2.33,8.609 l 34.34,195.582 c 0.91,5.09 5.32,8.77 10.39,8.77 h 146.17 c 8.9,0 17.21,-1.75 24.61,-5.18 7.4,-3.511 13.81,-8.351 18.79,-14.531 5.08,-6.18 8.65,-13.359 10.65,-21.379 1.99,-7.93 2.16,-16.449 0.58,-25.301 -1.91,-11.031 -6.15,-21.05 -12.72,-30.07 4.65,-2.918 8.81,-6.598 12.39,-10.848 5.07,-6.273 8.73,-13.453 10.72,-21.382 2.08,-8.02 2.33,-16.539 0.75,-25.469 z m -272.8,27.469 c -7.74,-6.508 -16.22,-11.688 -25.45,-15.36 -9.39,-3.758 -19.2,-5.679 -29.18,-5.679 h -134.28 l -10.64,-60.301 c -0.84,-5.09 -5.24,-8.77 -10.4,-8.77 h -20.04 c -3.16,0 -6.07,1.422 -8.15,3.84 -1.99,2.34 -2.82,5.512 -2.24,8.609 l 34.34,195.582 c 0.83,5.09 5.24,8.77 10.39,8.77 h 163.22 c 10.23,0 19.71,-2 28.1,-5.93 8.32,-4.011 15.55,-9.519 21.29,-16.449 5.74,-7.019 9.89,-15.199 12.22,-24.391 2.33,-9.101 2.58,-18.789 0.83,-28.89 -1.74,-10.02 -5.32,-19.551 -10.64,-28.309 -5.24,-8.601 -11.81,-16.203 -19.37,-22.722 z m -248.53,-61.129 -3.57,-20.211 c -0.84,-5.09 -5.24,-8.77 -10.4,-8.77 h -216.34 c -3.08,0 -6.07,1.422 -8.07,3.84 -1.99,2.34 -2.83,5.512 -2.33,8.609 l 34.34,195.582 c 0.92,5.09 5.32,8.77 10.4,8.77 h 216.34 c 3.16,0 6.07,-1.34 8.07,-3.762 2.08,-2.418 2.91,-5.59 2.33,-8.679 l -3.5,-20.129 c -0.91,-5.09 -5.32,-8.77 -10.39,-8.77 h -187.33 l -8.06,-45.93 h 137.02 c 3.08,0 6.07,-1.421 8.07,-3.761 1.99,-2.418 2.82,-5.59 2.32,-8.688 l -3.57,-20.203 c -0.92,-5.008 -5.24,-8.769 -10.39,-8.769 h -140.69 l -8.23,-46.688 h 183.59 c 3.16,0 6.07,-1.422 8.06,-3.84 2,-2.34 2.83,-5.511 2.33,-8.601 z m -242.87,58.629 c -2.08,-12.028 -6.48,-23.547 -12.89,-34.239 -6.4,-10.441 -14.3,-19.8 -23.61,-27.73 -9.23,-7.93 -19.71,-14.199 -31.02,-18.711 -11.47,-4.59 -23.44,-6.93 -35.5,-6.93 h -68.68 c -12.39,0 -23.78,2.422 -34,7.102 -10.31,4.84 -18.96,11.527 -25.86,19.961 -6.9,8.347 -11.81,18.207 -14.64,29.226 -2.82,10.942 -3.16,22.711 -0.99,34.992 l 6.65,37.829 c 2.16,12.191 6.48,23.722 12.97,34.332 6.32,10.347 14.22,19.699 23.53,27.64 9.31,7.93 19.71,14.188 31.01,18.789 11.48,4.59 23.53,6.93 35.67,6.93 h 68.68 c 12.31,0 23.7,-2.422 33.84,-7.18 10.23,-4.761 18.96,-11.441 25.86,-19.879 6.9,-8.429 11.81,-18.211 14.63,-29.23 2.83,-10.941 3.16,-22.801 1,-35.07 -0.91,-5.102 -5.32,-8.77 -10.39,-8.77 h -20.12 c -3.08,0 -6.07,1.328 -8.07,3.758 -1.99,2.422 -2.82,5.59 -2.33,8.68 1.17,6.519 1,12.703 -0.41,18.293 -1.5,5.597 -3.91,10.437 -7.32,14.617 -3.49,4.25 -7.65,7.429 -12.8,9.851 -5.16,2.418 -10.81,3.59 -17.38,3.59 h -68.76 c -6.65,0 -13.31,-1.34 -19.63,-3.84 -6.56,-2.59 -12.63,-6.261 -18.04,-10.941 -5.49,-4.59 -10.14,-10.098 -13.88,-16.199 -3.58,-5.93 -5.99,-12.36 -7.15,-19.039 l -6.66,-37.832 c -1.16,-6.52 -0.99,-12.528 0.42,-18.207 1.5,-5.68 3.82,-10.442 7.32,-14.614 3.49,-4.179 7.65,-7.347 12.88,-9.777 5.08,-2.422 10.98,-3.59 17.47,-3.59 h 68.76 c 6.65,0 13.22,1.258 19.54,3.758 6.56,2.672 12.55,6.351 18.04,10.941 5.4,4.59 10.06,10.02 13.8,16.121 3.58,6.008 5.99,12.438 7.15,19.039 0.92,5.09 5.32,8.77 10.4,8.77 h 20.12 c 3.16,0 6.07,-1.34 8.06,-3.762 2,-2.418 2.91,-5.59 2.33,-8.679 z m -251.68,37.832 -6.66,-37.832 c -2.08,-12.028 -6.4,-23.547 -12.88,-34.239 -6.41,-10.441 -14.31,-19.8 -23.62,-27.73 -9.23,-7.93 -19.7,-14.199 -31.01,-18.711 -11.48,-4.59 -23.45,-6.93 -35.5,-6.93 h -68.68 c -12.39,0 -23.78,2.422 -34.01,7.102 -10.23,4.84 -18.96,11.527 -25.86,19.961 -6.82,8.347 -11.81,18.207 -14.63,29.226 -2.83,10.942 -3.16,22.711 -1,34.992 l 6.65,37.829 c 2.16,12.191 6.49,23.722 12.97,34.332 2.58,4.25 5.57,8.179 8.65,12.019 h -82.9 l -29.1,-166.691 c -0.91,-5.09 -5.32,-8.77 -10.39,-8.77 h -19.96 c -3.16,0 -6.07,1.422 -8.15,3.762 -1.99,2.418 -2.82,5.59 -2.24,8.687 l 28.35,163.012 h -80.4 c -2.41,0 -4.66,1 -6.49,2.59 0.25,-0.84 0.67,-1.5 0.84,-2.34 1.99,-7.93 2.16,-16.449 0.66,-25.301 -2,-11.031 -6.23,-21.05 -12.8,-30.07 4.65,-2.918 8.81,-6.598 12.39,-10.848 5.07,-6.273 8.73,-13.453 10.72,-21.382 2.08,-8.02 2.33,-16.539 0.75,-25.469 -1.5,-8.61 -4.66,-16.871 -9.23,-24.469 -4.57,-7.601 -10.31,-14.281 -16.96,-19.883 -13.72,-11.687 -29.69,-17.867 -47.31,-18.289 h -172.78 c -3.08,0 -6.07,1.422 -8.07,3.84 -0.08,0.09 -0.08,0.172 -0.16,0.25 -2,-2.5 -4.91,-4.09 -8.15,-4.09 h -23.28 c -4.24,0 -8.07,2.59 -9.73,6.52 l -21.2,51.359 h -115.08 l -41.15,-53.699 c -2,-2.59 -5.08,-4.18 -8.4,-4.18 h -23.45 c -4.07,0 -7.73,2.34 -9.48,5.93 -1.83,3.68 -1.33,7.93 1.08,11.191 l 150.17,195.59 c 1.99,2.59 5.15,4.09 8.39,4.09 h 11.39 c 4.24,0 8.15,-2.59 9.73,-6.512 l 78.41,-189.988 32.92,187.73 c 0.92,5.09 5.33,8.77 10.4,8.77 h 146.17 c 8.98,0 17.21,-1.75 24.61,-5.18 7.48,-3.511 13.8,-8.351 18.79,-14.531 2.33,-2.84 4.24,-5.93 5.91,-9.187 l 3.57,20.128 c 0.92,5.09 5.24,8.77 10.39,8.77 h 206.29 c 3.16,0 6.07,-1.34 8.07,-3.762 2.07,-2.418 2.91,-5.59 2.32,-8.679 l -2.74,-15.45 c 0.75,0.661 1.41,1.5 2.16,2.172 9.32,7.93 19.71,14.188 31.02,18.789 11.47,4.59 23.53,6.93 35.67,6.93 h 68.67 c 12.31,0 23.7,-2.422 33.93,-7.18 10.23,-4.761 18.87,-11.441 25.78,-19.879 6.89,-8.429 11.8,-18.211 14.63,-29.23 2.82,-10.941 3.16,-22.801 1,-35.07 z m -976.81,612.054 15.3,145.645 14.3,140.64 -10.23,52.36 c -4.07,23.97 1.75,45.43 17.38,64.64 15.72,19.2 35.84,28.72 60.28,28.72 h 681.56 l -15.39,-145.72 h -588.43 l -14.3,-140.64 h 588.43 l -15.3,-145.645 h -481.17 c -12.3,0 -24.11,2.758 -35.25,8.184 -11.31,5.516 -20.46,13.113 -27.61,23.133 -7.23,9.855 -12.14,21.048 -14.8,33.328 l -14.3,81 -15.38,-145.645 -28.6,-286.367 h -146.09 z m 859.24,338.645 c -4.08,23.97 1.83,45.43 17.37,64.64 15.72,19.2 35.84,28.72 60.29,28.72 h 93.04 l -73.59,-718.372 h -146.09 l 59.2,572.652 z m 224.82,-411.551 14.22,145.641 22.54,213.55 -10.23,52.36 c -4.07,23.97 1.75,45.43 17.46,64.64 15.55,19.2 35.75,28.72 60.2,28.72 h 593.66 c 23.12,0 42.57,-8.76 58.29,-26.22 15.55,-17.37 22.37,-37.75 20.37,-61.05 l -6.15,-58.45 -21.45,-213.55 -8.15,-74.821 c -1.42,-13.027 -5.57,-25.054 -12.81,-35.91 -7.06,-10.941 -16.54,-19.543 -28.02,-25.722 -11.56,-6.18 -24.27,-9.188 -37.83,-9.188 h -51.13 L 4003.11,661.578 H 3834.49 L 3734.3,875.039 h -191.08 c -19.04,0 -36,5.93 -50.55,18.039 -14.63,11.945 -23.69,27.477 -27.1,46.602 l -14.31,81 -15.29,-145.641 -21.46,-213.461 h -146.09 z m -1113.66,559.951 -0.08,-0.59 h -760.38 c -26.94,0 -48.97,-11.1 -66.18,-33.06 -17.22,-22.14 -23.53,-47.02 -19.04,-74.58 l 11.14,-60.38 -15.63,-162.02 -6.74,-67.47 c -2.99,-26.81 4.08,-50.195 21.37,-70.402 17.13,-20.129 38.83,-30.066 65.02,-30.066 h 445.33 c 8.98,0 17.55,1.336 25.86,4.094 8.15,2.754 15.88,6.597 22.95,11.855 7.07,5.012 13.3,11.192 18.54,18.293 5.16,7.098 9.65,14.949 13.47,23.633 l 40.33,110.063 h -486.91 l 15.8,162.02 h 654.86 l -31.43,-261.31 c 2.5,26.31 -7.48,49.27 -24.44,69.06 -17.13,20.13 -38.91,30.23 -65.11,30.23 h -62.77 l -16.8,-167.938 -15.8,-162.18 h -646.04 l -16.88,-167.941 h 728.03 c 22.53,0 41.91,7.929 58.37,23.629 8.31,8.019 14.88,16.961 19.54,26.808 l -5.99,-50.187 -24.19,-207.36 C 2028.54,186.648 2193.84,0 2406.94,0 h 2451.5 l 60.03,606.551 h 0.08 l 70.43,828.439 z M 2359.14,309.66 h 66.26 l -23.2,56.211 z m 337.65,37.25 c 5.91,5.012 9.32,10.77 10.56,17.621 1.08,6.18 0,11.02 -3.49,15.289 -3.41,4.168 -7.82,6.09 -13.89,6.09 H 2572.9 l -8.06,-46.351 h 113.33 c 6.73,0 12.8,2.421 18.62,7.351 z m 4.16,-48.691 h -143.43 l -8.06,-46.348 h 139.6 c 6.9,0 12.97,2.43 18.87,7.348 5.91,5.011 9.32,10.781 10.48,17.543 1.08,6.258 0,11.109 -3.49,15.367 -3.41,4.09 -7.82,6.09 -13.97,6.09 z m 441.34,59.633 c -1.41,5.597 -3.82,10.437 -7.32,14.617 -3.49,4.25 -7.64,7.429 -12.8,9.851 -5.15,2.418 -10.81,3.59 -17.38,3.59 h -68.76 c -6.65,0 -13.3,-1.34 -19.62,-3.84 -6.57,-2.59 -12.64,-6.261 -18.04,-10.941 -5.49,-4.59 -10.07,-10.02 -13.72,-16.117 -3.58,-5.934 -5.99,-12.364 -7.24,-19.121 l -6.56,-37.832 c -1.17,-6.598 -1.09,-12.528 0.33,-18.289 1.41,-5.598 3.82,-10.36 7.23,-14.532 3.49,-4.179 7.65,-7.347 12.89,-9.777 5.07,-2.422 10.97,-3.59 17.46,-3.59 h 68.76 c 6.65,0 13.22,1.258 19.54,3.758 6.57,2.672 12.56,6.351 18.04,10.941 5.41,4.59 10.06,10.02 13.8,16.121 3.58,6.008 6.07,12.438 7.16,19.039 l 6.65,37.829 c 1.16,6.519 1,12.703 -0.42,18.293 z m 768.44,19.207 c -4.99,6.011 -11.3,8.851 -20.04,8.851 h -134.28 l -11.39,-65.051 h 130.54 c 9.31,0 17.71,3.332 25.78,10.102 8.06,6.848 12.8,14.777 14.47,24.301 1.57,8.769 -0.09,15.699 -5.08,21.797 z m 226.25,-30.149 c 5.9,5.012 9.31,10.77 10.55,17.621 1.09,6.18 0,11.02 -3.49,15.289 -3.41,4.168 -7.81,6.09 -13.88,6.09 h -117.07 l -8.07,-46.351 h 113.33 c 6.73,0 12.8,2.421 18.63,7.351 z m 18.12,-54.781 c -3.41,4.09 -7.82,6.09 -13.97,6.09 h -143.42 l -8.15,-46.348 h 139.68 c 6.82,0 12.97,2.43 18.88,7.348 5.82,5.011 9.31,10.781 10.47,17.543 1.08,6.258 0,11.109 -3.49,15.367 z m 0,0 c -3.41,4.09 -7.82,6.09 -13.97,6.09 h -143.42 l -8.15,-46.348 h 139.68 c 6.82,0 12.97,2.43 18.88,7.348 5.82,5.011 9.31,10.781 10.47,17.543 1.08,6.258 0,11.109 -3.49,15.367 z m -11.06,87.691 c -3.41,4.168 -7.81,6.09 -13.88,6.09 h -117.07 l -8.07,-46.351 h 113.33 c 6.73,0 12.8,2.421 18.63,7.351 5.9,5.012 9.31,10.77 10.55,17.621 1.09,6.18 0,11.02 -3.49,15.289 z m -233.31,-2.761 c -4.99,6.011 -11.3,8.851 -20.04,8.851 h -134.28 l -11.39,-65.051 h 130.54 c 9.31,0 17.71,3.332 25.78,10.102 8.06,6.848 12.8,14.777 14.47,24.301 1.57,8.769 -0.09,15.699 -5.08,21.797 z m -768.44,-19.207 c -1.41,5.597 -3.82,10.437 -7.32,14.617 -3.49,4.25 -7.64,7.429 -12.8,9.851 -5.15,2.418 -10.81,3.59 -17.38,3.59 h -68.76 c -6.65,0 -13.3,-1.34 -19.62,-3.84 -6.57,-2.59 -12.64,-6.261 -18.04,-10.941 -5.49,-4.59 -10.07,-10.02 -13.72,-16.117 -3.58,-5.934 -5.99,-12.364 -7.24,-19.121 l -6.56,-37.832 c -1.17,-6.598 -1.09,-12.528 0.33,-18.289 1.41,-5.598 3.82,-10.36 7.23,-14.532 3.49,-4.179 7.65,-7.347 12.89,-9.777 5.07,-2.422 10.97,-3.59 17.46,-3.59 h 68.76 c 6.65,0 13.22,1.258 19.54,3.758 6.57,2.672 12.56,6.351 18.04,10.941 5.41,4.59 10.06,10.02 13.8,16.121 3.58,6.008 6.07,12.438 7.16,19.039 l 6.65,37.829 c 1.16,6.519 1,12.703 -0.42,18.293 z m -427.37,-65.723 c -3.41,4.09 -7.82,6.09 -13.97,6.09 h -143.43 l -8.06,-46.348 h 139.6 c 6.9,0 12.97,2.43 18.87,7.348 5.91,5.011 9.32,10.781 10.48,17.543 1.08,6.258 0,11.109 -3.49,15.367 z m -11.06,87.691 c -3.41,4.168 -7.82,6.09 -13.89,6.09 H 2572.9 l -8.06,-46.351 h 113.33 c 6.73,0 12.8,2.421 18.62,7.351 5.91,5.012 9.32,10.77 10.56,17.621 1.08,6.18 0,11.02 -3.49,15.289 z M 2402.2,365.871 2359.14,309.66 h 66.26 z m 0,0 -43.06,-56.211 h 66.26 z m 301.66,13.949 c -3.41,4.168 -7.82,6.09 -13.89,6.09 H 2572.9 l -8.06,-46.351 h 113.33 c 6.73,0 12.8,2.421 18.62,7.351 5.91,5.012 9.32,10.77 10.56,17.621 1.08,6.18 0,11.02 -3.49,15.289 z m 11.06,-87.691 c -3.41,4.09 -7.82,6.09 -13.97,6.09 h -143.43 l -8.06,-46.348 h 139.6 c 6.9,0 12.97,2.43 18.87,7.348 5.91,5.011 9.32,10.781 10.48,17.543 1.08,6.258 0,11.109 -3.49,15.367 z m 427.37,65.723 c -1.41,5.597 -3.82,10.437 -7.32,14.617 -3.49,4.25 -7.64,7.429 -12.8,9.851 -5.15,2.418 -10.81,3.59 -17.38,3.59 h -68.76 c -6.65,0 -13.3,-1.34 -19.62,-3.84 -6.57,-2.59 -12.64,-6.261 -18.04,-10.941 -5.49,-4.59 -10.07,-10.02 -13.72,-16.117 -3.58,-5.934 -5.99,-12.364 -7.24,-19.121 l -6.56,-37.832 c -1.17,-6.598 -1.09,-12.528 0.33,-18.289 1.41,-5.598 3.82,-10.36 7.23,-14.532 3.49,-4.179 7.65,-7.347 12.89,-9.777 5.07,-2.422 10.97,-3.59 17.46,-3.59 h 68.76 c 6.65,0 13.22,1.258 19.54,3.758 6.57,2.672 12.56,6.351 18.04,10.941 5.41,4.59 10.06,10.02 13.8,16.121 3.58,6.008 6.07,12.438 7.16,19.039 l 6.65,37.829 c 1.16,6.519 1,12.703 -0.42,18.293 z m 768.44,19.207 c -4.99,6.011 -11.3,8.851 -20.04,8.851 h -134.28 l -11.39,-65.051 h 130.54 c 9.31,0 17.71,3.332 25.78,10.102 8.06,6.848 12.8,14.777 14.47,24.301 1.57,8.769 -0.09,15.699 -5.08,21.797 z m 0,0 c -4.99,6.011 -11.3,8.851 -20.04,8.851 h -134.28 l -11.39,-65.051 h 130.54 c 9.31,0 17.71,3.332 25.78,10.102 8.06,6.848 12.8,14.777 14.47,24.301 1.57,8.769 -0.09,15.699 -5.08,21.797 z m -768.44,-19.207 c -1.41,5.597 -3.82,10.437 -7.32,14.617 -3.49,4.25 -7.64,7.429 -12.8,9.851 -5.15,2.418 -10.81,3.59 -17.38,3.59 h -68.76 c -6.65,0 -13.3,-1.34 -19.62,-3.84 -6.57,-2.59 -12.64,-6.261 -18.04,-10.941 -5.49,-4.59 -10.07,-10.02 -13.72,-16.117 -3.58,-5.934 -5.99,-12.364 -7.24,-19.121 l -6.56,-37.832 c -1.17,-6.598 -1.09,-12.528 0.33,-18.289 1.41,-5.598 3.82,-10.36 7.23,-14.532 3.49,-4.179 7.65,-7.347 12.89,-9.777 5.07,-2.422 10.97,-3.59 17.46,-3.59 h 68.76 c 6.65,0 13.22,1.258 19.54,3.758 6.57,2.672 12.56,6.351 18.04,10.941 5.41,4.59 10.06,10.02 13.8,16.121 3.58,6.008 6.07,12.438 7.16,19.039 l 6.65,37.829 c 1.16,6.519 1,12.703 -0.42,18.293 z m -427.37,-65.723 c -3.41,4.09 -7.82,6.09 -13.97,6.09 h -143.43 l -8.06,-46.348 h 139.6 c 6.9,0 12.97,2.43 18.87,7.348 5.91,5.011 9.32,10.781 10.48,17.543 1.08,6.258 0,11.109 -3.49,15.367 z m -11.06,87.691 c -3.41,4.168 -7.82,6.09 -13.89,6.09 H 2572.9 l -8.06,-46.351 h 113.33 c 6.73,0 12.8,2.421 18.62,7.351 5.91,5.012 9.32,10.77 10.56,17.621 1.08,6.18 0,11.02 -3.49,15.289 z M 2402.2,365.871 2359.14,309.66 h 66.26 z m 0,0 -43.06,-56.211 h 66.26 z m 301.66,13.949 c -3.41,4.168 -7.82,6.09 -13.89,6.09 H 2572.9 l -8.06,-46.351 h 113.33 c 6.73,0 12.8,2.421 18.62,7.351 5.91,5.012 9.32,10.77 10.56,17.621 1.08,6.18 0,11.02 -3.49,15.289 z m 11.06,-87.691 c -3.41,4.09 -7.82,6.09 -13.97,6.09 h -143.43 l -8.06,-46.348 h 139.6 c 6.9,0 12.97,2.43 18.87,7.348 5.91,5.011 9.32,10.781 10.48,17.543 1.08,6.258 0,11.109 -3.49,15.367 z m 427.37,65.723 c -1.41,5.597 -3.82,10.437 -7.32,14.617 -3.49,4.25 -7.64,7.429 -12.8,9.851 -5.15,2.418 -10.81,3.59 -17.38,3.59 h -68.76 c -6.65,0 -13.3,-1.34 -19.62,-3.84 -6.57,-2.59 -12.64,-6.261 -18.04,-10.941 -5.49,-4.59 -10.07,-10.02 -13.72,-16.117 -3.58,-5.934 -5.99,-12.364 -7.24,-19.121 l -6.56,-37.832 c -1.17,-6.598 -1.09,-12.528 0.33,-18.289 1.41,-5.598 3.82,-10.36 7.23,-14.532 3.49,-4.179 7.65,-7.347 12.89,-9.777 5.07,-2.422 10.97,-3.59 17.46,-3.59 h 68.76 c 6.65,0 13.22,1.258 19.54,3.758 6.57,2.672 12.56,6.351 18.04,10.941 5.41,4.59 10.06,10.02 13.8,16.121 3.58,6.008 6.07,12.438 7.16,19.039 l 6.65,37.829 c 1.16,6.519 1,12.703 -0.42,18.293 z m 0,0 c -1.41,5.597 -3.82,10.437 -7.32,14.617 -3.49,4.25 -7.64,7.429 -12.8,9.851 -5.15,2.418 -10.81,3.59 -17.38,3.59 h -68.76 c -6.65,0 -13.3,-1.34 -19.62,-3.84 -6.57,-2.59 -12.64,-6.261 -18.04,-10.941 -5.49,-4.59 -10.07,-10.02 -13.72,-16.117 -3.58,-5.934 -5.99,-12.364 -7.24,-19.121 l -6.56,-37.832 c -1.17,-6.598 -1.09,-12.528 0.33,-18.289 1.41,-5.598 3.82,-10.36 7.23,-14.532 3.49,-4.179 7.65,-7.347 12.89,-9.777 5.07,-2.422 10.97,-3.59 17.46,-3.59 h 68.76 c 6.65,0 13.22,1.258 19.54,3.758 6.57,2.672 12.56,6.351 18.04,10.941 5.41,4.59 10.06,10.02 13.8,16.121 3.58,6.008 6.07,12.438 7.16,19.039 l 6.65,37.829 c 1.16,6.519 1,12.703 -0.42,18.293 z m -427.37,-65.723 c -3.41,4.09 -7.82,6.09 -13.97,6.09 h -143.43 l -8.06,-46.348 h 139.6 c 6.9,0 12.97,2.43 18.87,7.348 5.91,5.011 9.32,10.781 10.48,17.543 1.08,6.258 0,11.109 -3.49,15.367 z m -11.06,87.691 c -3.41,4.168 -7.82,6.09 -13.89,6.09 H 2572.9 l -8.06,-46.351 h 113.33 c 6.73,0 12.8,2.421 18.62,7.351 5.91,5.012 9.32,10.77 10.56,17.621 1.08,6.18 0,11.02 -3.49,15.289 z M 2402.2,365.871 2359.14,309.66 h 66.26 z"
         style="fill:#231f20;fill-opacity:1;fill-rule:nonzero;stroke:none"
         id="path14" />
      <path
         d="m 3916.18,1234.21 h -443.41 l -21.53,-213.49 h 442.44 l 22.5,213.49"
         style="fill:#231f20;fill-opacity:1;fill-rule:nonzero;stroke:none"
         id="path16" />
      <path
         d="m 3468.04,1035.97 18.45,182.99 h 412.82 l -19.28,-182.99 h -411.99"
         style="fill:#231f20;fill-opacity:1;fill-rule:nonzero;stroke:none"
         id="path18" />
      <path
         d="M 473.414,917.406 241.188,1434.38 H 139.102 c -26.981,0 -48.9965,-11.05 -66.2387,-33.06 -17.1445,-22.12 -23.5742,-46.97 -18.9961,-74.56 L 65.0703,1266.39 0,606.281 h 160.434 l 47.05,492.129 209.821,-464.93 h 57.179 l 299.539,464.93 -47.148,-492.129 h 159.363 l 80.754,828.099 H 807.629 L 473.414,917.406"
         style="fill:#231f20;fill-opacity:1;fill-rule:nonzero;stroke:none"
         id="path20" />
      <path
         d="m 1221.17,1201.58 c -0.38,-0.46 -0.76,-0.99 -1.14,-1.53 -24.74,-35.29 -107.62,16.62 -112.25,19.59 -0.15,0.08 -0.22,0.16 -0.22,0.16 l -41.82,35.22 h -0.08 c 0,0 0,0 0,0.14 -42.72,46.05 -89.398,136 12.3,261.39 0,0 28.53,-16.39 24.21,-40.1 0,0 127.12,141.25 61.4,224.34 0,0 98.2,-16.16 98.2,-178.14 0,-30.34 -3.49,-65.86 -11.69,-107.33 0,0 34.54,10.06 34.54,34.61 0,0 40.37,-115.49 -63.45,-248.35"
         style="fill:#231f20;fill-opacity:1;fill-rule:nonzero;stroke:none"
         id="path22" />
      <path
         d="m 1220.03,1200.05 -10.32,-106.18 -47.59,-487.632 h -160.36 l 55.48,562.332 5.31,53.89 c 20.72,-4.26 43.49,-2.89 45.23,-2.82 4.63,-2.97 87.51,-54.88 112.25,-19.59"
         style="fill:#231f20;fill-opacity:1;fill-rule:nonzero;stroke:none"
         id="path24" />
    </g>
  </g>
</svg>
