<?xml version="1.0" standalone="no"?>
<svg xmlns:xlink="http://www.w3.org/1999/xlink" id="wave" style="transform:rotate(0deg); transition: 0.3s" viewBox="0 0 6440 200" version="1.1" xmlns="http://www.w3.org/2000/svg"><defs><linearGradient id="sw-gradient-0" x1="0" x2="0" y1="1" y2="0"><stop stop-color="rgba(240, 30, 44, 1)" offset="0%"/><stop stop-color="rgba(240, 30, 44, 1)" offset="100%"/></linearGradient></defs><path style="transform:translate(0, 0px); opacity:1" fill="url(#sw-gradient-0)" d="M0,44L24,51.3C48,59,96,73,144,84.3C192,95,240,103,288,95.3C336,88,384,66,432,51.3C480,37,528,29,576,44C624,59,672,95,720,102.7C768,110,816,88,864,95.3C912,103,960,139,1008,161.3C1056,183,1104,191,1152,172.3C1200,154,1248,110,1296,102.7C1344,95,1392,125,1440,132C1488,139,1536,125,1584,106.3C1632,88,1680,66,1728,73.3C1776,81,1824,117,1872,117.3C1920,117,1968,81,2016,69.7C2064,59,2112,73,2160,95.3C2208,117,2256,147,2304,150.3C2352,154,2400,132,2448,132C2496,132,2544,154,2592,139.3C2640,125,2688,73,2736,55C2784,37,2832,51,2880,51.3C2928,51,2976,37,3024,55C3072,73,3120,125,3168,132C3216,139,3264,103,3312,73.3C3360,44,3408,22,3432,11L3456,0L3456,220L3432,220C3408,220,3360,220,3312,220C3264,220,3216,220,3168,220C3120,220,3072,220,3024,220C2976,220,2928,220,2880,220C2832,220,2784,220,2736,220C2688,220,2640,220,2592,220C2544,220,2496,220,2448,220C2400,220,2352,220,2304,220C2256,220,2208,220,2160,220C2112,220,2064,220,2016,220C1968,220,1920,220,1872,220C1824,220,1776,220,1728,220C1680,220,1632,220,1584,220C1536,220,1488,220,1440,220C1392,220,1344,220,1296,220C1248,220,1200,220,1152,220C1104,220,1056,220,1008,220C960,220,912,220,864,220C816,220,768,220,720,220C672,220,624,220,576,220C528,220,480,220,432,220C384,220,336,220,288,220C240,220,192,220,144,220C96,220,48,220,24,220L0,220Z"/></svg>